<?xml version="1.0" encoding="utf-8"?>
<!-- Svg Vector Icons : http://www.onlinewebfonts.com/icon -->
<!DOCTYPE svg PUBLIC "-//W3C//DTD SVG 1.1//EN" "http://www.w3.org/Graphics/SVG/1.1/DTD/svg11.dtd">
<svg version="1.1" xmlns="http://www.w3.org/2000/svg" xmlns:xlink="http://www.w3.org/1999/xlink" x="0px" y="0px" viewBox="0 0 1000 1000" enable-background="new 0 0 1000 1000" xml:space="preserve">
<metadata> Svg Vector Icons : http://www.onlinewebfonts.com/icon </metadata>
<g><path d="M514.9,280.4H469v90.9h45.9V280.4z M181.3,483.9l77.2,49.8l24.9-36.1l-77.2-49.8L181.3,483.9z M130.4,666.5h92.9v-41.9h-92.9V666.5z M509.2,667.7L748.4,383L459.9,617L509.2,667.7z M693.9,341.2l-36.4-27.6L605,385.4l36.4,27.5L693.9,341.2z M500,159.7c-270.6,0-490,214.7-490,479.6c0,63.1,35.7,200.9,35.7,200.9h887.6v-0.6h11.6c28.9-61.1,45.1-128.5,45.1-200.3C990,374.5,770.6,159.7,500,159.7z M903.1,776.5H91.6c-12.8-39-20.8-94.3-20.8-137.6C70.9,412.7,269,217.2,500,217.2c231,0,431.5,196.6,431.5,422.7C931.5,683.2,915.9,737.5,903.1,776.5z M721.5,489.4l24.8,38.5l75.5-47.6L797,441.8L721.5,489.4z M783.5,666.1h90.6v-42.6h-90.6V666.1z M291.6,345.3l56.7,71.9l34.9-27.2l-56.7-71.9L291.6,345.3z M513.2,701l-90.8-82l91.1-67.6c-6-1.2-12.1-1.9-18.5-1.9c-49.4,0-89.4,39.2-89.4,87.5c0,48.3,40,87.5,89.4,87.5c49.4,0,89.4-39.2,89.4-87.5c0-8.6-1.7-16.7-4-24.6L513.2,701z"/></g>
</svg>